PathFileType	4	(x/y/z)	Passive_Pref0001.trc
DataRate	CameraRate	NumFrames	NumMarkers	Units	OrigDataRate	OrigDataStartFrame	OrigNumFrames
240	240	4	50	mm	240	1	311
Frame#	Time	R_AC			L_AC			HEAD			STERN			C7			L_IC			R_IC			L_ASIS			R_ASIS			L_GT			R_GT			R_PSIS			L_PSIS			SACRAL			L_LAT_KNEE			L_MED_KNEE			R_LAT_KNEE			R_MED_KNEE			L_LAT_ANK			L_MED_ANK			R_LAT_ANK			R_MED_ANK			L_THIGH_PROX_POST			L_THIGH_PROX_ANT			L_THIGH_DIST_ANT			L_THIGH_DIST_POST			R_THIGH_PROX_POST			R_THIGH_PROX_ANT			R_THIGH_DIST_ANT			R_THIGH_DIST_POST			L_SHANK_PROX_POST			L_SHANK_PROX_ANT			L_SHANK_DIST_ANT			L_SHANK_DIST_POST			R_SHANK_PROX_POST			R_SHANK_PROX_ANT			R_SHANK_DIST_ANT			R_SHANK_DIST_POST			L_HEEL_LAT			L_HEEL_SUP			L_HEEL_MED			R_HEEL_LAT			R_HEEL_SUP			R_HEEL_MED			L_1ST_MET			L_5TH_MET			L_TOE			R_1ST_MET			R_5TH_MET			R_TOE			
		X1	Y1	Z1	X2	Y2	Z2	X3	Y3	Z3	X4	Y4	Z4	X5	Y5	Z5	X6	Y6	Z6	X7	Y7	Z7	X8	Y8	Z8	X9	Y9	Z9	X10	Y10	Z10	X11	Y11	Z11	X12	Y12	Z12	X13	Y13	Z13	X14	Y14	Z14	X15	Y15	Z15	X16	Y16	Z16	X17	Y17	Z17	X18	Y18	Z18	X19	Y19	Z19	X20	Y20	Z20	X21	Y21	Z21	X22	Y22	Z22	X23	Y23	Z23	X24	Y24	Z24	X25	Y25	Z25	X26	Y26	Z26	X27	Y27	Z27	X28	Y28	Z28	X29	Y29	Z29	X30	Y30	Z30	X31	Y31	Z31	X32	Y32	Z32	X33	Y33	Z33	X34	Y34	Z34	X35	Y35	Z35	X36	Y36	Z36	X37	Y37	Z37	X38	Y38	Z38	X39	Y39	Z39	X40	Y40	Z40	X41	Y41	Z41	X42	Y42	Z42	X43	Y43	Z43	X44	Y44	Z44	X45	Y45	Z45	X46	Y46	Z46	X47	Y47	Z47	X48	Y48	Z48	X49	Y49	Z49	X50	Y50	Z50	

1	0	-786.46	1500.4	439.3	-807.12	1518.2	37.077	-739.61	1820.7	263.8	-706.83	1452.9	244.93	-856.98	1549.5	247.17	-829.65	1092.5	84.292	-825.24	1107.1	422.26	-754.51	1008.4	126.28	-762.63	1008.5	394.89	-839.9	923.69	65.491	-886.15	948.02	432.45	-973.75	1026.3	282.4	-974.84	1013.4	197.22	-988.31	988.23	241.65	-654.33	557.62	111.71	-636.54	575.42	249.69	-1013.9	554.59	393.75	-1005.5	555.6	260.13	-503.93	137.56	122.06	-514.4	125.27	202.27	-1211.3	135	328.8	-1176.9	153.08	228.36	-746.22	775.01	82.484	-691.65	797.21	119.24	-666.32	729.48	129.24	-712.98	706.32	94.125	-965.79	827.21	408.1	-910.28	810.72	434.77	-937.43	741.15	423.76	-984.86	756.58	398.57	-627.72	509.22	122.64	-590.92	557.2	137.01	-561.33	496.88	148.92	-597.07	455.13	124.49	-1123.1	421.07	390.07	-1068.9	400.72	387.05	-1097.1	331.93	373.2	-1150.1	349.37	374.31	-527.61	50.36	114.96	-556.24	63.903	147.86	-540.02	36.335	183.31	-1297	120.38	290.65	-1284	146.06	256.57	-1271.6	114.07	230.65	-339.22	129	236.86	-343.43	128.23	121.49	-301.2	172.21	207.6	-1069.3	44.15	243.81	-1112.9	40.25	357.98	-1019.5	41.322	300.71
2	0.0041801	-781.44	1499.5	438.76	-802.28	1517.2	36.573	-734.98	1819.8	263.14	-701.91	1451.9	244.41	-852.11	1548.6	246.68	-824.75	1091.4	83.938	-820.38	1106.1	421.88	-749.29	1007.5	125.91	-757.63	1007.6	394.64	-834.67	922.64	65.212	-881.37	947.18	432.16	-968.77	1025.2	282.02	-970.32	1012.3	196.79	-983.17	987.07	241.29	-649.88	556.47	111.68	-632.17	574.15	249.6	-1009.5	553.97	393.52	-1000.7	554.83	259.92	-501.45	136.17	122.14	-511.91	124.43	202.68	-1210.4	135.95	328.99	-1175.7	153.79	228.56	-741.13	773.84	82.185	-686.44	796.09	118.81	-661.32	728.26	128.87	-708.12	705.14	93.93	-961.09	826.57	407.68	-905.64	810.05	434.43	-932.85	740.47	423.45	-980.22	755.93	398.16	-623.51	507.92	122.65	-586.48	555.72	136.98	-557.19	495.29	148.91	-593.13	453.7	124.52	-1119.7	421.31	390.03	-1065.6	400.49	387	-1094.4	331.94	373.19	-1147.3	349.86	374.35	-525.98	49.667	115.2	-554.32	63.705	148.06	-538.56	36.056	183.58	-1296.1	121.97	290.78	-1282.9	147.67	256.75	-1270.3	115.47	230.73	-336.8	126.25	236.95	-341.1	125.43	121.59	-298.43	169.09	207.65	-1069.2	44.056	243.77	-1112.7	40.243	358.06	-1019.4	41.251	300.7
3	0.0083602	-776.2	1498.5	438.21	-797.24	1516.1	36.043	-730.14	1818.8	262.44	-696.78	1450.9	243.86	-847.03	1547.6	246.16	-819.6	1090.2	83.566	-815.28	1105.2	421.48	-743.81	1006.5	125.53	-752.4	1006.7	394.37	-829.2	921.56	64.92	-876.37	946.32	431.85	-963.55	1024.1	281.61	-965.52	1011.2	196.33	-977.8	985.87	240.9	-645.27	555.29	111.64	-627.65	572.84	249.51	-1004.9	553.32	393.28	-995.73	554.02	259.71	-498.92	134.75	122.2	-509.39	123.56	203.07	-1209.5	136.97	329.19	-1174.5	154.56	228.78	-735.85	772.61	81.872	-681.04	794.91	118.35	-656.14	726.98	128.49	-703.09	703.91	93.732	-956.16	825.9	407.24	-900.78	809.36	434.08	-928.04	739.78	423.11	-975.35	755.26	397.73	-619.16	506.6	122.66	-581.91	554.21	136.95	-552.92	493.64	148.9	-589.07	452.24	124.55	-1116	421.57	389.98	-1062.1	400.26	386.96	-1091.6	331.96	373.18	-1144.3	350.38	374.4	-524.33	48.953	115.42	-552.36	63.514	148.22	-537.1	35.793	183.84	-1295.2	123.66	290.92	-1281.8	149.39	256.93	-1269.1	116.98	230.82	-334.36	123.39	237.04	-338.74	122.53	121.68	-295.62	165.85	207.71	-1069	43.953	243.72	-1112.6	40.237	358.14	-1019.4	41.18	300.69
4	0.01254	-770.78	1497.6	437.62	-792.03	1515.1	35.489	-725.14	1817.9	261.73	-691.46	1450	243.29	-841.77	1546.6	245.62	-814.21	1089.1	83.179	-809.96	1104.2	421.07	-738.12	1005.6	125.13	-746.96	1005.8	394.09	-823.52	920.45	64.617	-871.16	945.45	431.53	-958.12	1023	281.17	-960.47	1010.1	195.86	-972.2	984.65	240.48	-640.56	554.1	111.61	-623.05	571.5	249.43	-1000.1	552.65	393.05	-990.49	553.17	259.51	-496.38	133.3	122.23	-506.86	122.66	203.44	-1208.5	138.05	329.4	-1173.1	155.37	229.02	-730.41	771.34	81.545	-675.48	793.65	117.87	-650.81	725.63	128.11	-697.93	702.62	93.532	-951.03	825.22	406.76	-895.71	808.65	433.7	-923.03	739.07	422.76	-970.26	754.57	397.27	-614.72	505.26	122.67	-577.23	552.67	136.93	-548.57	491.97	148.9	-584.93	450.76	124.58	-1112.2	421.86	389.94	-1058.5	400.03	386.93	-1088.6	332	373.2	-1141.1	350.95	374.44	-522.7	48.226	115.6	-550.41	63.335	148.33	-535.65	35.554	184.05	-1294.2	125.46	291.05	-1280.5	151.21	257.12	-1267.7	118.61	230.91	-331.93	120.44	237.12	-336.39	119.54	121.77	-292.8	162.5	207.77	-1068.9	43.841	243.67	-1112.4	40.234	358.23	-1019.3	41.11	300.68
